<svg width="current" height="current" viewBox="0 0 50 50" fill="current" xmlns="http://www.w3.org/2000/svg">
<path fill-rule="evenodd" clip-rule="evenodd" d="M4.77686 4.77687C5.52787 4.02586 6.7096 3.96809 7.52687 4.60356L7.72314 4.77687L37.4651 34.5188C37.5802 34.6113 37.6868 34.7173 37.7825 34.8362L45.2231 42.2769C46.0367 43.0905 46.0367 44.4096 45.2231 45.2231C44.4721 45.9742 43.2904 46.0319 42.4731 45.3965L42.2769 45.2231L35.8459 38.7922C32.5043 40.7046 28.8798 41.6667 25 41.6667C15.8425 41.6667 8.25724 36.3571 2.35785 26.0337C1.99179 25.3931 1.99183 24.6067 2.35796 23.9661C4.839 19.6257 7.60982 16.175 10.6814 13.6277L4.77686 7.72314C3.96327 6.90955 3.96327 5.59046 4.77686 4.77687ZM13.6429 16.5892C11.2695 18.4893 9.05388 21.0625 7.00354 24.3192L6.58542 25L6.83039 25.4044C11.7292 33.3198 17.5531 37.271 24.3938 37.4903L25 37.5C27.7624 37.5 30.3425 36.9073 32.7668 35.7131L27.6969 30.6432C25.3716 31.757 22.5003 31.35 20.5743 29.4226C18.6494 27.4964 18.2437 24.6269 19.3568 22.3031L13.6429 16.5892ZM23.4075 26.3538L23.6462 26.5925C23.6035 26.5561 23.5619 26.5178 23.5216 26.4774C23.4816 26.4374 23.4436 26.3961 23.4075 26.3538ZM25 8.33321C34.1575 8.33321 41.7427 13.6429 47.6422 23.9663C48.0082 24.6069 48.0082 25.3934 47.642 26.0339C45.9444 29.0036 44.1152 31.5531 42.1487 33.6807C41.3677 34.5257 40.0496 34.5776 39.2047 33.7966C38.3597 33.0156 38.3079 31.6976 39.0888 30.8526C40.4437 29.3867 41.7407 27.6729 42.9783 25.7098L43.4146 25L43.1696 24.5956C38.2707 16.6802 32.4464 12.7289 25.5996 12.5095L24.9928 12.4999C23.3309 12.4941 21.6767 12.7231 20.0792 13.1801C18.973 13.4965 17.8197 12.8563 17.5033 11.7501C17.1868 10.6439 17.827 9.49055 18.9333 9.1741C20.9081 8.60916 22.953 8.32609 25 8.33321Z" fill="current"/>
</svg>
