<svg width="current" height="current" viewBox="0 0 50 50" fill="current" xmlns="http://www.w3.org/2000/svg">
<path fill-rule="evenodd" clip-rule="evenodd" d="M14.5833 45.8337H35.4167V45.8316C38.8542 45.8316 41.6667 43.0191 41.6667 39.5816V16.6667V16.6649C41.6667 16.6287 41.6657 16.5925 41.6638 16.5565C41.6523 16.3348 41.6055 16.1179 41.5288 15.9148C41.4245 15.6386 41.2647 15.3879 41.0625 15.1858L30.6458 4.76909C30.25 4.37326 29.7083 4.14409 29.1667 4.16492V4.16667C29.1537 4.16667 29.1407 4.16678 29.1278 4.16701H14.5833C11.125 4.16701 8.33334 6.95867 8.33334 10.417V39.5837C8.33334 43.0212 11.125 45.8337 14.5833 45.8337ZM27.0833 8.33367H14.5833C13.4167 8.33367 12.5 9.25034 12.5 10.417V39.5837C12.5 40.7295 13.4167 41.667 14.5833 41.667H35.4167C36.5625 41.667 37.5 40.7295 37.5 39.5837V18.75H31.25C28.9375 18.75 27.0833 16.875 27.0833 14.5833V8.33367ZM31.25 11.2712V14.5833H34.5622L31.25 11.2712ZM20.8324 37.5C20.0408 37.4791 19.3116 37.0416 18.9783 36.3541L16.8949 32.1875C16.5824 31.5833 16.5824 30.8958 16.8949 30.3125L18.9783 26.1458C19.5616 25.1458 20.8324 24.8333 21.8324 25.4166C22.7074 25.9375 23.0616 27.0416 22.6658 28L21.0616 31.2291L22.6658 34.4583C23.1658 35.4791 22.7699 36.7291 21.7491 37.25C21.4574 37.3958 21.1241 37.4791 20.8116 37.4791L20.8324 37.5ZM28.2285 37.2707C28.4994 37.4165 28.8327 37.4999 29.166 37.4999L29.1244 37.477C29.8952 37.4561 30.6244 37.0186 30.9785 36.3311L33.0619 32.1645C33.3535 31.5603 33.3535 30.8728 33.0619 30.2895L30.9785 26.1228C30.9369 26.0186 30.8952 25.9353 30.8536 25.852C30.2494 24.852 28.9785 24.5395 27.9994 25.1436C26.9994 25.7478 26.6869 27.0186 27.291 28.0186H27.3119L28.916 31.2478L27.3119 34.477C26.791 35.4978 27.1869 36.7478 28.2285 37.2686V37.2707Z" fill="current"/>
</svg>
