<svg width="current" height="current" viewBox="0 0 50 50" fill="current" xmlns="http://www.w3.org/2000/svg">
<path fill-rule="evenodd" clip-rule="evenodd" d="M25 6.25C25.4604 6.25 25.9052 6.40243 26.2667 6.67933L26.4731 6.86019L30.0313 10.4167H39.5833C42.9118 10.4167 45.6326 13.0186 45.8227 16.2994L45.8333 16.6667V31.25C45.8333 34.5785 43.2314 37.2993 39.9506 37.4894L39.5833 37.5H37.5V39.5833C37.5 42.9118 34.8981 45.6326 31.6172 45.8227L31.25 45.8333H10.4167C7.08817 45.8333 4.36738 43.2314 4.17728 39.9506L4.16667 39.5833V20.8333C4.16667 17.5048 6.76859 14.784 10.0494 14.5939L10.4167 14.5833H12.5V12.5C12.5 9.1715 15.1019 6.45071 18.3828 6.26061L18.75 6.25H25ZM12.5 18.75H10.4167C9.34826 18.75 8.4677 19.5542 8.34735 20.5904L8.33334 20.8333V39.5833C8.33334 40.6517 9.13759 41.5323 10.1737 41.6526L10.4167 41.6667H31.25C32.3184 41.6667 33.199 40.8624 33.3193 39.8263L33.3333 39.5833V37.5H18.75C15.4215 37.5 12.7007 34.8981 12.5106 31.6172L12.5 31.25V18.75ZM35.4167 33.3333L18.75 33.3333L18.507 33.3193C17.4709 33.199 16.6667 32.3184 16.6667 31.25V16.6667V12.5L16.6807 12.257C16.801 11.2209 17.6816 10.4167 18.75 10.4167H24.1354L27.6935 13.9731L27.8999 14.154C28.2615 14.4309 28.7062 14.5833 29.1667 14.5833H39.5833L39.8263 14.5973C40.8624 14.7177 41.6667 15.5983 41.6667 16.6667V31.25L41.6527 31.493C41.5323 32.5291 40.6517 33.3333 39.5833 33.3333L35.4167 33.3333Z" fill="current"/>
</svg>
