<svg width="current" height="current" viewBox="0 0 50 50" fill="current" xmlns="http://www.w3.org/2000/svg">
<path fill-rule="evenodd" clip-rule="evenodd" d="M22.9167 6.25001C22.9167 5.09941 23.8494 4.16667 25 4.16667C26.1506 4.16667 27.0833 5.09941 27.0833 6.25001V10.4167C27.0833 11.5673 26.1506 12.5 25 12.5C23.8494 12.5 22.9167 11.5673 22.9167 10.4167V6.25001ZM39.5833 22.9167H43.75C44.9006 22.9167 45.8333 23.8494 45.8333 25C45.8333 26.1506 44.9006 27.0833 43.75 27.0833H39.5833C38.4327 27.0833 37.5 26.1506 37.5 25C37.5 23.8494 38.4327 22.9167 39.5833 22.9167ZM12.5 25C12.5 23.8494 11.5673 22.9167 10.4167 22.9167H6.25C5.09941 22.9167 4.16667 23.8494 4.16667 25C4.16667 26.1506 5.09941 27.0833 6.25 27.0833H10.4167C11.5673 27.0833 12.5 26.1506 12.5 25ZM9.97558 10.4999C10.7752 9.65421 12.1091 9.6169 12.9547 10.4166L16.0797 13.3749C16.8875 14.1875 16.8875 15.4998 16.0797 16.3124C15.6885 16.7228 15.1468 16.9561 14.5797 16.9582C14.0146 16.9782 13.4657 16.7677 13.0589 16.3749L10.0589 13.4791C9.21323 12.6794 9.17592 11.3456 9.97558 10.4999ZM35.42 16.9583C35.9563 16.9562 36.4713 16.7472 36.8575 16.375L39.8575 13.4792C40.653 12.6479 40.6241 11.3291 39.7928 10.5336C39.0364 9.80964 37.8602 9.75958 37.0449 10.4167L34.0449 13.375C33.2372 14.1876 33.2372 15.4999 34.0449 16.3125C34.4057 16.6932 34.8967 16.9238 35.42 16.9583ZM22.9167 39.5833C22.9167 38.4327 23.8494 37.5 25 37.5C26.1506 37.5 27.0833 38.4327 27.0833 39.5833V43.75C27.0833 44.9006 26.1506 45.8333 25 45.8333C23.8494 45.8333 22.9167 44.9006 22.9167 43.75V39.5833ZM36.9375 33.625C36.1091 32.8253 34.7892 32.8487 33.9896 33.6771C33.1899 34.5055 33.2132 35.8253 34.0417 36.625L37.0417 39.5833C37.4279 39.9556 37.9428 40.1645 38.4792 40.1667C39.0432 40.17 39.5844 39.9445 39.9792 39.5417C40.7961 38.7314 40.8015 37.4123 39.9912 36.5954L39.9792 36.5833L36.9375 33.625ZM10.0625 36.5208L13.0625 33.625V33.6875C13.8909 32.8878 15.2108 32.9112 16.0104 33.7396C16.8101 34.568 16.7868 35.8878 15.9583 36.6875L12.9583 39.5833C12.5732 39.9231 12.0761 40.1085 11.5625 40.1042C10.9985 40.1075 10.4573 39.882 10.0625 39.4792L10.0504 39.4671C9.24017 38.6502 9.24558 37.3311 10.0625 36.5208Z" fill="current"/>
</svg>
