<svg width="current" height="current" viewBox="0 0 50 50" fill="current" xmlns="http://www.w3.org/2000/svg">
<path fill-rule="evenodd" clip-rule="evenodd" d="M37.5 6.25H33.3333H16.6667H12.5C9.04822 6.25 6.25 9.04822 6.25 12.5V16.6667V25V33.3333V37.5C6.25 40.9518 9.04822 43.75 12.5 43.75H16.6667H33.3333H37.5C40.9518 43.75 43.75 40.9518 43.75 37.5V33.3333V25V16.6667V12.5C43.75 9.04822 40.9518 6.25 37.5 6.25ZM39.5833 31.25V27.0833H35.4167V31.25H39.5833ZM35.4167 35.4167H39.5833V37.5C39.5833 38.6506 38.6506 39.5833 37.5 39.5833H35.4167V35.4167ZM31.25 33.3333V27.0833H18.75V33.3333V39.5833H31.25V33.3333ZM39.5833 12.5V14.5833H35.4167V10.4167H37.5C38.6506 10.4167 39.5833 11.3494 39.5833 12.5ZM39.5833 22.9167V18.75H35.4167V22.9167H39.5833ZM31.25 10.4167V16.6667V22.9167H18.75V16.6667V10.4167H31.25ZM14.5833 22.9167V18.75H10.4167V22.9167H14.5833ZM14.5833 27.0833V31.25H10.4167V27.0833H14.5833ZM10.4167 37.5V35.4167H14.5833V39.5833H12.5C11.3494 39.5833 10.4167 38.6506 10.4167 37.5ZM10.4167 14.5833V12.5C10.4167 11.3494 11.3494 10.4167 12.5 10.4167H14.5833V14.5833H10.4167Z" fill="current"/>
</svg>
