<svg width="current" height="current" viewBox="0 0 50 50" fill="current" xmlns="http://www.w3.org/2000/svg">
<path fill-rule="evenodd" clip-rule="evenodd" d="M27.0822 43.75H27.0833C27.7612 43.75 28.3662 43.4219 28.7473 42.9166L42.9166 28.7473C43.4219 28.3662 43.75 27.7612 43.75 27.0833V12.5C43.75 9.04167 40.9375 6.25 37.5 6.25H12.5C9.04167 6.25 6.25 9.04167 6.25 12.5V37.5C6.25 40.9375 9.04167 43.75 12.5 43.75H27.0521C27.0622 43.7501 27.0723 43.7502 27.0824 43.7502L27.0822 43.75ZM36.5826 29.1667H29.1667V36.5826L36.5826 29.1667ZM10.4167 12.5C10.4167 11.3333 11.3333 10.4167 12.5 10.4167H37.5C38.6458 10.4167 39.5833 11.3333 39.5833 12.5V25H29.1667C26.8542 25 25 26.8542 25 29.1667V39.5833H12.5C11.3333 39.5833 10.4167 38.6458 10.4167 37.5V12.5Z" fill="current"/>
</svg>
