<svg width="50" height="50" viewBox="0 0 50 50" fill="none" xmlns="http://www.w3.org/2000/svg">
<path fill-rule="evenodd" clip-rule="evenodd" d="M19.4858 8.50259C19.244 9.4972 18.1123 9.96616 17.2344 9.43237C12.154 6.33941 6.34078 12.1541 9.43541 17.2339C9.68656 17.6458 9.72581 18.1521 9.54145 18.5971C9.35709 19.0421 8.97129 19.3722 8.50316 19.4857C2.72136 20.8883 2.72136 29.1117 8.50259 30.5142C8.96917 30.6277 9.3545 30.9578 9.53864 31.4025C9.72279 31.8472 9.68363 32.3531 9.43324 32.7642C6.33941 37.846 12.1541 43.6592 17.2339 40.5646C17.6458 40.3134 18.1521 40.2742 18.5971 40.4586C19.0421 40.6429 19.3722 41.0287 19.4857 41.4968C20.8883 47.2786 29.1117 47.2786 30.5142 41.4974C30.6277 41.0308 30.9578 40.6455 31.4025 40.4614C31.8472 40.2772 32.3531 40.3164 32.7642 40.5668C37.846 43.6606 43.6592 37.8459 40.5646 32.7661C40.3134 32.3542 40.2742 31.8479 40.4586 31.4029C40.6429 30.9579 41.0287 30.6278 41.4968 30.5143C47.2786 29.1117 47.2786 20.8883 41.4974 19.4858C41.0308 19.3723 40.6455 19.0422 40.4614 18.5975C40.2772 18.1528 40.3164 17.6469 40.5668 17.2358C43.6606 12.1541 37.8459 6.34078 32.7661 9.43541C32.3542 9.68656 31.8479 9.72581 31.4029 9.54145C30.9579 9.35709 30.6278 8.97129 30.5142 8.50259C29.1117 2.72137 20.8883 2.72137 19.4858 8.50259ZM26.4648 9.48434C26.8916 11.2456 28.1339 12.6972 29.8081 13.3908C31.4824 14.0845 33.3872 13.9368 34.9345 12.9934C36.2253 12.207 37.6965 13.5876 37.1021 14.8916L37.008 15.0687C36.0662 16.615 35.9188 18.5184 36.6117 20.1916C37.3045 21.8648 38.7543 23.1068 40.514 23.5348C42.0505 23.9075 42.0505 26.0925 40.5151 26.465C38.7544 26.8916 37.3028 28.1339 36.6092 29.8081C35.9155 31.4824 36.0632 33.3872 37.0066 34.9345C37.793 36.2253 36.4125 37.6965 35.1084 37.1021L34.9313 37.008C33.385 36.0662 31.4816 35.9188 29.8084 36.6117C28.1352 37.3045 26.8932 38.7543 26.4653 40.514C26.0925 42.0505 23.9075 42.0505 23.535 40.5151C23.1084 38.7544 21.8661 37.3028 20.1919 36.6092C18.5176 35.9155 16.6128 36.0632 15.0655 37.0066C13.7747 37.793 12.3035 36.4125 12.8979 35.1084L12.992 34.9313C13.9338 33.385 14.0812 31.4816 13.3883 29.8084C12.6955 28.1352 11.2457 26.8932 9.48604 26.4653C7.94948 26.0925 7.94948 23.9075 9.48492 23.535C11.2456 23.1084 12.6972 21.8661 13.3908 20.1919C14.0845 18.5176 13.9368 16.6128 12.9934 15.0655C12.1713 13.716 13.7175 12.1694 15.0687 12.992C18.3567 14.9911 22.6264 13.2216 23.5348 9.48602C23.8879 8.03035 25.8675 7.95374 26.3916 9.25524L26.4648 9.48434ZM25 16.6667C20.3976 16.6667 16.6667 20.3976 16.6667 25C16.6667 29.6024 20.3976 33.3333 25 33.3333C29.6024 33.3333 33.3333 29.6024 33.3333 25C33.3333 20.3976 29.6024 16.6667 25 16.6667ZM25 20.8333C27.3012 20.8333 29.1667 22.6988 29.1667 25C29.1667 27.3012 27.3012 29.1667 25 29.1667C22.6988 29.1667 20.8333 27.3012 20.8333 25C20.8333 22.6988 22.6988 20.8333 25 20.8333Z" fill="white"/>
</svg>
