<svg width="current" height="current" viewBox="0 0 50 50" fill="current" xmlns="http://www.w3.org/2000/svg">
<path fill-rule="evenodd" clip-rule="evenodd" d="M8.35348 14.0894V36.7333C13.0323 34.9826 18.219 34.977 22.9289 36.7401V14.1731C18.3326 11.9077 12.9535 11.8798 8.35348 14.0894ZM26.0515 41.8321C25.9404 41.893 25.8243 41.9434 25.705 41.9833C25.4877 42.0607 25.2541 42.1028 25.0111 42.1028C24.7835 42.1028 24.5654 42.0672 24.3617 42.0012C24.2254 41.9589 24.0936 41.9025 23.9693 41.8321C18.8054 38.8573 12.4546 38.8573 7.31157 41.8321H7.30949C6.28921 42.3938 5.01906 42.0609 4.45686 41.0624C4.21343 40.6368 4.12972 40.1677 4.18905 39.7247V13.2752C4.17479 13.1774 4.16742 13.0776 4.16742 12.9761C4.1466 12.2063 4.56304 11.5198 5.20853 11.1454L5.1877 11.1267C11.2678 7.63174 18.6805 7.42371 24.9687 10.565C31.2154 7.4029 38.6697 7.61093 44.7498 11.1267C44.9433 11.2378 45.1125 11.3765 45.2549 11.5354C45.6127 11.907 45.8331 12.4134 45.8331 12.9785V40.0225C45.8331 41.1667 44.8961 42.1028 43.7509 42.1028C43.4338 42.1028 43.1351 42.0336 42.8683 41.9097C42.8142 41.8857 42.7611 41.8598 42.7092 41.8321C37.5453 38.8573 31.1946 38.8573 26.0515 41.8321ZM41.6687 36.7494V14.173C37.0725 11.9077 31.6933 11.8798 27.0933 14.0895V36.7436C31.8026 34.9923 36.9743 35.0022 41.6687 36.7494Z" fill="current"/>
</svg>
