<svg width="current" height="current" viewBox="0 0 50 50" fill="current" xmlns="http://www.w3.org/2000/svg">
<path fill-rule="evenodd" clip-rule="evenodd" d="M25 4.16667C13.4941 4.16667 4.16666 13.4941 4.16666 25C4.16666 36.5059 13.4941 45.8333 25 45.8333C36.5059 45.8333 45.8333 36.5059 45.8333 25C45.8333 13.4941 36.5059 4.16667 25 4.16667ZM25 41.6667C15.7952 41.6667 8.33332 34.2048 8.33332 25C8.33332 15.7953 15.7952 8.33334 25 8.33334C34.2047 8.33334 41.6667 15.7953 41.6667 25C41.6667 34.2048 34.2047 41.6667 25 41.6667ZM22.7525 27.8958L30.6275 17.4791H30.6067C31.3085 16.5587 32.6237 16.3814 33.5442 17.0833C34.4646 17.7852 34.6419 19.1003 33.94 20.0208L24.4192 32.5208C24.0259 33.0317 23.4181 33.3318 22.7733 33.3333C22.1321 33.3368 21.5251 33.0447 21.1275 32.5416L16.065 26.0625C15.3574 25.1535 15.5206 23.843 16.4296 23.1354C17.3386 22.4278 18.6491 22.591 19.3567 23.5L22.7525 27.8958Z" fill="current"/>
</svg>
