<svg width="41" height="41" viewBox="0 0 41 41" fill="none" xmlns="http://www.w3.org/2000/svg">
<path fill-rule="evenodd" clip-rule="evenodd" d="M22.3756 20.0199L29.5494 12.8628C30.2036 12.2086 30.2036 11.1479 29.5494 10.4937C28.8952 9.83953 27.8346 9.83953 27.1804 10.4937L20.0232 17.6676L12.8661 10.4937L12.8661 10.4937C12.2119 9.83954 11.1512 9.83954 10.497 10.4937C9.84284 11.1479 9.84284 12.2086 10.497 12.8628L17.6709 20.0199L10.497 27.1771C9.84284 27.8259 9.83851 28.8822 10.4874 29.5364C10.4906 29.5397 10.4938 29.5429 10.497 29.5461H10.497C11.1459 30.2003 12.2022 30.2046 12.8564 29.5558C12.8596 29.5525 12.8628 29.5493 12.8661 29.5461L20.0232 22.3723L27.1804 29.5461V29.5461C27.8292 30.2003 28.8855 30.2046 29.5397 29.5558C29.543 29.5526 29.5462 29.5493 29.5494 29.5461C30.2036 28.8972 30.2079 27.8409 29.5591 27.1867C29.5559 27.1835 29.5526 27.1803 29.5494 27.1771L22.3756 20.0199Z" fill="white"/>
</svg>
