<svg width="current" height="current" viewBox="0 0 16 15" fill="current" xmlns="http://www.w3.org/2000/svg">
<path d="M14.875 0H4.875C4.70924 0 4.55027 0.0658481 4.43306 0.183058C4.31585 0.300269 4.25 0.45924 4.25 0.625V3.75H1.125C0.95924 3.75 0.800269 3.81585 0.683058 3.93306C0.565848 4.05027 0.5 4.20924 0.5 4.375V14.375C0.5 14.5408 0.565848 14.6997 0.683058 14.8169C0.800269 14.9342 0.95924 15 1.125 15H11.125C11.2908 15 11.4497 14.9342 11.5669 14.8169C11.6842 14.6997 11.75 14.5408 11.75 14.375V11.25H14.875C15.0408 11.25 15.1997 11.1842 15.3169 11.0669C15.4342 10.9497 15.5 10.7908 15.5 10.625V0.625C15.5 0.45924 15.4342 0.300269 15.3169 0.183058C15.1997 0.0658481 15.0408 0 14.875 0ZM10.5 13.75H1.75V5H10.5V13.75ZM14.25 10H11.75V4.375C11.75 4.20924 11.6842 4.05027 11.5669 3.93306C11.4497 3.81585 11.2908 3.75 11.125 3.75H5.5V1.25H14.25V10Z" fill="current"/>
</svg>
