<svg width="current" height="current" viewBox="0 0 50 50" fill="current" xmlns="http://www.w3.org/2000/svg">
<path fill-rule="evenodd" clip-rule="evenodd" d="M27.0922 20.8333C21.6341 20.8333 16.133 19.8519 12.5162 17.9352V29.1668C12.5162 30.3126 11.5791 31.2501 10.4339 31.2501C9.26779 31.2501 8.35158 30.3126 8.35158 29.1668V12.5001V12.5C8.35158 7.02084 17.7844 4.16667 27.0922 4.16667C36.4001 4.16667 45.8328 7.02084 45.8328 12.5C45.8328 12.5471 45.8321 12.594 45.8308 12.6406V24.8945C45.8325 24.9294 45.8333 24.9646 45.8333 25V37.5C45.8333 42.9583 36.3797 45.8333 27.0927 45.8333H25.5518C24.3857 45.8333 23.4695 44.8958 23.4695 43.75C23.4695 42.5833 24.3857 41.6667 25.5518 41.6667H27.0927C36.5671 41.6667 41.6687 38.7083 41.6687 37.5V30.4209C38.052 32.3402 32.5496 33.3293 27.0901 33.3293L27.0912 33.3314C24.8843 33.3313 22.6982 33.1855 20.5538 32.873C19.3877 32.6855 18.5965 31.623 18.7839 30.4772C18.9505 29.3105 20.0124 28.5189 21.1785 28.7064L21.1764 28.7043C23.113 28.9959 25.0911 29.1418 27.0901 29.1626C36.5646 29.1626 41.6662 26.2043 41.6662 24.9959V17.9363C38.0493 19.8523 32.5493 20.8333 27.0922 20.8333ZM27.0912 33.3314H27.0922V33.3334L27.0912 33.3314ZM27.0922 8.33334C36.4641 8.33334 41.5573 11.228 41.6665 12.4601L41.6662 12.4959V12.543C41.5486 13.777 36.4561 16.6667 27.0922 16.6667C17.6178 16.6667 12.5162 13.7083 12.5162 12.5C12.5162 11.2917 17.6178 8.33334 27.0922 8.33334ZM12.5167 45.8125C12.5167 46.9583 13.4329 47.8958 14.5989 47.9167L14.5573 47.8958C15.0987 47.875 15.6401 47.6667 16.0357 47.2708L22.2826 41.0208C22.47 40.8333 22.6366 40.6042 22.7407 40.3542H22.7615C22.8448 40.0833 22.9073 39.8333 22.9073 39.5625C22.9073 39.2708 22.8448 39 22.7407 38.7708C22.6158 38.5 22.47 38.2708 22.2826 38.0833L16.0357 31.8333C15.2028 31.0208 13.9118 31.0208 13.0997 31.8333C12.2876 32.6458 12.2876 33.9375 13.0997 34.7708L15.7859 37.4792H6.24896C5.08287 37.4792 4.16666 38.3958 4.16666 39.5625C4.16666 40.7083 5.08287 41.6458 6.24896 41.6458H15.7859L13.1205 44.3333C12.7249 44.7292 12.5167 45.25 12.5167 45.8125Z" fill="current"/>
</svg>
