<svg width="current" height="current" viewBox="0 0 50 50" fill="current" xmlns="http://www.w3.org/2000/svg">
<path fill-rule="evenodd" clip-rule="evenodd" d="M25.0099 20.8333C19.5461 20.8333 14.0394 19.8519 10.4189 17.9352V25C10.4189 26.2083 15.5257 29.1667 25.0099 29.1667C27.1985 29.1458 29.3872 28.9792 31.555 28.625H31.5529C32.6993 28.4375 33.7832 29.2083 33.9708 30.375C34.1376 31.5208 33.3664 32.6042 32.2199 32.7917H32.1991C29.802 33.1667 27.384 33.3333 24.9869 33.3333H25.0099C20.7576 33.3958 16.5262 32.7292 12.5033 31.375C11.7176 31.0805 11.0263 30.7707 10.4189 30.4504V37.5C10.4189 38.6458 15.0671 41.4583 24.0927 41.6667C25.2392 41.6667 26.1772 42.5833 26.1772 43.75C26.1772 44.8958 25.2392 45.8333 24.0927 45.8333H24.051C15.4632 45.625 6.25 42.9583 6.25 37.5V25V12.5C6.25 7.02084 15.6925 4.16667 25.0099 4.16667C34.3273 4.16667 43.7697 7.02084 43.7697 12.5V25V29.1667C43.7697 30.3125 42.8318 31.25 41.6853 31.25C40.518 31.25 39.6009 30.3125 39.6009 29.1667V25V17.9352C35.9804 19.8519 30.4736 20.8333 25.0099 20.8333ZM25.0099 8.33334C15.5257 8.33334 10.4189 11.2917 10.4189 12.5C10.4189 13.7083 15.5257 16.6667 25.0099 16.6667C34.494 16.6667 39.6009 13.7083 39.6009 12.5C39.6009 11.2917 34.494 8.33334 25.0099 8.33334ZM36.0365 47.3125C36.4117 47.6875 36.9537 47.9167 37.5165 47.9167L37.4935 47.8938C38.0355 47.8938 38.5774 47.6646 38.9735 47.2896L38.9756 47.2917L45.2289 41.0417C45.4165 40.8333 45.5624 40.6042 45.6666 40.3542C45.7708 40.0833 45.8125 39.8333 45.8333 39.5625C45.8125 39.2708 45.7708 39.0208 45.6666 38.7708C45.5624 38.5 45.4165 38.2708 45.2289 38.0833L38.9756 31.8333C38.1418 31 36.8286 31 36.0157 31.8333C35.1819 32.6458 35.1819 33.9583 36.0157 34.7917L38.7254 37.4792H29.1579C27.9906 37.4792 27.0735 38.3958 27.0735 39.5625C27.0735 40.7083 27.9906 41.6458 29.1579 41.6458H38.7254L36.0157 44.3333V44.3542C35.2027 45.1667 35.2027 46.5 36.0365 47.3125Z" fill="current"/>
</svg>
