<svg width="current" height="current" viewBox="0 0 50 50" fill="current" xmlns="http://www.w3.org/2000/svg">
<path fill-rule="evenodd" clip-rule="evenodd" d="M25 20.8333C19.5391 20.8333 14.0353 19.8519 10.4167 17.9352V25C10.4167 26.2083 15.5208 29.1667 25 29.1667C34.4792 29.1667 39.5833 26.2083 39.5833 25V17.9352C35.9647 19.8519 30.4609 20.8333 25 20.8333ZM39.5833 30.4352C35.9647 32.3519 30.4609 33.3333 25 33.3333C19.5391 33.3333 14.0353 32.3519 10.4167 30.4352V37.5C10.4167 38.7083 15.5208 41.6667 25 41.6667C34.4792 41.6667 39.5833 38.7083 39.5833 37.5V30.4352ZM6.25 25V12.5C6.25 7.02084 15.6875 4.16667 25 4.16667C34.3125 4.16667 43.75 7.02084 43.75 12.5V25V37.5C43.75 42.9792 34.3125 45.8333 25 45.8333C15.6875 45.8333 6.25 42.9792 6.25 37.5V25ZM25 16.6667C34.4792 16.6667 39.5833 13.7083 39.5833 12.5C39.5833 11.2917 34.4792 8.33334 25 8.33334C15.5208 8.33334 10.4167 11.2917 10.4167 12.5C10.4167 13.7083 15.5208 16.6667 25 16.6667Z" fill="current"/>
</svg>
