<svg width="current" height="current" viewBox="0 0 50 50" fill="current" xmlns="http://www.w3.org/2000/svg">
<path fill-rule="evenodd" clip-rule="evenodd" d="M31.25 37.5003H22.9167C19.4583 37.5003 16.6667 34.6878 16.6667 31.2503V16.6667H14.5833C13.4167 16.6667 12.5 17.5833 12.5 18.75V39.5833C12.5 40.7292 13.4167 41.6667 14.5833 41.6667H29.1667C30.3125 41.6667 31.25 40.7292 31.25 39.5833V37.5003ZM33.2945 33.3337H22.9167C21.75 33.3337 20.8333 32.3962 20.8333 31.2503V14.5862C20.8333 14.5852 20.8333 14.5843 20.8333 14.5833C20.8333 14.5824 20.8333 14.5814 20.8333 14.5805V10.417C20.8333 9.25034 21.75 8.33367 22.9167 8.33367H29.1667V14.5833C29.1667 16.875 31.0208 18.75 33.3333 18.75H39.5833V31.2503C39.5833 32.3962 38.6458 33.3337 37.5 33.3337H33.3715C33.3588 33.3334 33.3461 33.3333 33.3333 33.3333C33.3204 33.3333 33.3074 33.3334 33.2945 33.3337ZM35.4167 37.5003H37.5V37.4983C40.9375 37.4983 43.75 34.6858 43.75 31.2483V16.6667V16.6649C43.75 16.6287 43.749 16.5925 43.7472 16.5565C43.7356 16.3348 43.6889 16.1179 43.6121 15.9148C43.5078 15.6386 43.348 15.3879 43.1458 15.1858L32.7292 4.76909C32.3333 4.37326 31.7917 4.14409 31.25 4.16492V4.16667C31.237 4.16667 31.2241 4.16678 31.2111 4.16701H22.9167C19.4583 4.16701 16.6667 6.95867 16.6667 10.417V12.5H14.5833C11.125 12.5 8.33333 15.2917 8.33333 18.75V39.5833C8.33333 43.0208 11.125 45.8333 14.5833 45.8333H29.1667C32.6042 45.8333 35.4167 43.0208 35.4167 39.5833V37.5003ZM33.3333 11.2712L36.6455 14.5833H33.3333V11.2712Z" fill="current"/>
</svg>
