<svg width="current" height="current" viewBox="0 0 50 50" fill="current" xmlns="http://www.w3.org/2000/svg">
<path fill-rule="evenodd" clip-rule="evenodd" d="M35.4167 45.8337V45.8316C38.8542 45.8316 41.6667 43.0191 41.6667 39.5816V16.6667V16.6649C41.6667 16.6287 41.6657 16.5925 41.6638 16.5565C41.6523 16.3348 41.6055 16.1179 41.5288 15.9148C41.4245 15.6386 41.2647 15.3879 41.0625 15.1858L30.6458 4.76909C30.25 4.37326 29.7083 4.14409 29.1667 4.16493V4.16667C29.1537 4.16667 29.1407 4.16679 29.1278 4.16701H14.5833C11.125 4.16701 8.33334 6.95868 8.33334 10.417V39.5837C8.33334 43.0212 11.125 45.8337 14.5833 45.8337H35.4167ZM27.0833 8.33368H14.5833C13.4167 8.33368 12.5 9.25034 12.5 10.417V39.5837C12.5 40.7295 13.4167 41.667 14.5833 41.667H35.4167C36.5625 41.667 37.5 40.7295 37.5 39.5837V18.75H31.25C28.9375 18.75 27.0833 16.875 27.0833 14.5833V8.33368ZM31.25 11.2712V14.5833H34.5622L31.25 11.2712ZM27.0833 39.5833H25C23.8333 39.5833 22.9167 38.6458 22.9167 37.5V31.25C21.75 31.25 20.8333 30.3125 20.8333 29.1667C20.8333 28 21.75 27.0833 22.9167 27.0833H25C26.1458 27.0833 27.0833 28 27.0833 29.1667V35.4167C28.2292 35.4167 29.1667 36.3333 29.1667 37.5C29.1667 38.6458 28.2292 39.5833 27.0833 39.5833ZM22.9167 22.9167C22.9167 24.0625 23.8333 25 25 25C26.1458 25 27.0833 24.0625 27.0833 22.9167C27.0833 21.75 26.1458 20.8333 25 20.8333C23.8333 20.8333 22.9167 21.75 22.9167 22.9167Z" fill="current"/>
</svg>
