<svg width="current" height="current" viewBox="0 0 50 50" fill="current" xmlns="http://www.w3.org/2000/svg">
<path fill-rule="evenodd" clip-rule="evenodd" d="M35.4167 45.8337H14.5833C11.125 45.8337 8.33333 43.0212 8.33333 39.5837V10.417C8.33333 6.95867 11.125 4.16701 14.5833 4.16701H29.1278C29.1407 4.16678 29.1537 4.16667 29.1667 4.16667V4.16492C29.7083 4.14409 30.25 4.37326 30.6458 4.76909L41.0625 15.1858C41.2647 15.3879 41.4245 15.6386 41.5288 15.9148C41.6055 16.1179 41.6523 16.3348 41.6638 16.5565C41.6657 16.5925 41.6667 16.6287 41.6667 16.6649V16.6667V39.5816C41.6667 43.0191 38.8542 45.8316 35.4167 45.8316V45.8337ZM14.5833 8.33367H27.0833V14.5833C27.0833 16.875 28.9375 18.75 31.25 18.75H37.5V39.5837C37.5 40.7295 36.5625 41.667 35.4167 41.667H14.5833C13.4167 41.667 12.5 40.7295 12.5 39.5837V10.417C12.5 9.25034 13.4167 8.33367 14.5833 8.33367ZM31.25 14.5833V11.2712L34.5622 14.5833H31.25ZM18.75 20.8333H20.8333C21.9792 20.8333 22.9167 19.8958 22.9167 18.75C22.9167 17.5833 21.9792 16.6667 20.8333 16.6667H18.75C17.5833 16.6667 16.6667 17.5833 16.6667 18.75C16.6667 19.8958 17.5833 20.8333 18.75 20.8333ZM31.25 29.1667H18.75C17.5833 29.1667 16.6667 28.2292 16.6667 27.0833C16.6667 25.9167 17.5833 25 18.75 25H31.25C32.3958 25 33.3333 25.9167 33.3333 27.0833C33.3333 28.2292 32.3958 29.1667 31.25 29.1667ZM18.75 37.5H31.25C32.3958 37.5 33.3333 36.5625 33.3333 35.4167C33.3333 34.25 32.3958 33.3333 31.25 33.3333H18.75C17.5833 33.3333 16.6667 34.25 16.6667 35.4167C16.6667 36.5625 17.5833 37.5 18.75 37.5Z" fill="current"/>
</svg>
