<svg width="current" height="current" viewBox="0 0 50 50" fill="current" xmlns="http://www.w3.org/2000/svg">
<path fill-rule="evenodd" clip-rule="evenodd" d="M35.4167 45.8337V45.8316C38.8542 45.8316 41.6667 43.0191 41.6667 39.5816V16.6667V16.6649C41.6667 16.6287 41.6657 16.5925 41.6638 16.5565C41.6523 16.3348 41.6055 16.1179 41.5288 15.9148C41.4245 15.6386 41.2647 15.3879 41.0625 15.1858L30.6458 4.76909C30.25 4.37326 29.7083 4.14409 29.1667 4.16493V4.16667C29.1537 4.16667 29.1407 4.16679 29.1278 4.16701H14.5833C11.125 4.16701 8.33334 6.95868 8.33334 10.417V39.5837C8.33334 43.0212 11.125 45.8337 14.5833 45.8337H35.4167ZM27.0833 8.33368H14.5833C13.4167 8.33368 12.5 9.25034 12.5 10.417V39.5837C12.5 40.7295 13.4167 41.667 14.5833 41.667H35.4167C36.5625 41.667 37.5 40.7295 37.5 39.5837V18.75H31.25C28.9375 18.75 27.0833 16.875 27.0833 14.5833V8.33368ZM31.25 11.2712V14.5833H34.5622L31.25 11.2712ZM22.9167 30.3868L20.2278 27.6862C19.3945 26.855 18.082 26.855 17.2695 27.6883C16.4383 28.5008 16.4383 29.8133 17.2716 30.6466L23.5216 36.8966C23.7151 37.0901 23.9529 37.2448 24.2151 37.3491C24.3622 37.4084 24.518 37.4515 24.6804 37.4761C24.7857 37.4924 24.8929 37.5008 25.0008 37.5008L25.0004 37.5C25.4641 37.4999 25.8937 37.3463 26.2409 37.0874C26.3243 37.0279 26.4036 36.9627 26.4778 36.8925L32.7278 30.6425C33.5403 29.8091 33.5403 28.4966 32.7278 27.6841C31.8945 26.8529 30.582 26.8529 29.7695 27.6862L27.0833 30.3841V22.9167C27.0833 21.75 26.1458 20.8333 25 20.8333C23.8333 20.8333 22.9167 21.75 22.9167 22.9167V30.3868Z" fill="current"/>
</svg>
