<svg width="current" height="current" viewBox="0 0 50 50" fill="current" xmlns="http://www.w3.org/2000/svg">
<path fill-rule="evenodd" clip-rule="evenodd" d="M35.4167 45.8337H14.5833C11.125 45.8337 8.33333 43.0212 8.33333 39.5837V10.417C8.33333 6.95868 11.125 4.16701 14.5833 4.16701H29.1278C29.1407 4.16679 29.1537 4.16667 29.1667 4.16667V4.16493C29.7083 4.14409 30.25 4.37326 30.6458 4.76909L41.0625 15.1858C41.2647 15.3879 41.4245 15.6386 41.5288 15.9148C41.6055 16.1179 41.6523 16.3348 41.6638 16.5565C41.6657 16.5925 41.6667 16.6287 41.6667 16.6649V16.6667V39.5816C41.6667 43.0191 38.8542 45.8316 35.4167 45.8316V45.8337ZM14.5833 8.33368H27.0833V14.5833C27.0833 16.875 28.9375 18.75 31.25 18.75H37.5V39.5837C37.5 40.7295 36.5625 41.667 35.4167 41.667H14.5833C13.4167 41.667 12.5 40.7295 12.5 39.5837V10.417C12.5 9.25034 13.4167 8.33368 14.5833 8.33368ZM31.25 14.5833V11.2712L34.5622 14.5833H31.25ZM27.6867 34.813C28.0617 35.188 28.6034 35.4172 29.1659 35.4172L29.1221 35.3943C29.6638 35.3943 30.2055 35.1651 30.6013 34.7901H30.6221C31.4346 33.9776 31.4346 32.6443 30.6221 31.8526L27.9138 29.1651L30.6221 26.4776C31.4346 25.6443 31.4346 24.3318 30.6221 23.5193C29.7888 22.686 28.4763 22.686 27.6638 23.5193L24.9763 26.2276L22.2888 23.5193C21.4555 22.688 20.143 22.688 19.3305 23.5214C18.4992 24.3339 18.4992 25.6464 19.3325 26.4797L22.0409 29.1672L19.3325 31.8547C18.4992 32.6672 18.4992 33.9797 19.3325 34.813C20.145 35.6255 21.4575 35.6255 22.2909 34.813H22.3117L24.9992 32.1047L27.6867 34.813Z" fill="current"/>
</svg>
