<svg width="current" height="current" viewBox="0 0 50 50" fill="current" xmlns="http://www.w3.org/2000/svg">
<path fill-rule="evenodd" clip-rule="evenodd" d="M8.33334 39.5837C8.33334 43.0212 11.125 45.8337 14.5833 45.8337H35.4167V45.8316C38.8542 45.8316 41.6667 43.0191 41.6667 39.5816V16.6667V16.6649C41.6667 16.6287 41.6657 16.5925 41.6638 16.5565C41.6523 16.3348 41.6055 16.1179 41.5288 15.9148C41.4245 15.6386 41.2647 15.3879 41.0625 15.1858L30.6458 4.76909C30.25 4.37326 29.7083 4.14409 29.1667 4.16492V4.16667C29.1537 4.16667 29.1407 4.16678 29.1278 4.16701H14.5833C11.125 4.16701 8.33334 6.95867 8.33334 10.417V39.5837ZM27.0833 8.33367H14.5833C13.4167 8.33367 12.5 9.25034 12.5 10.417V39.5837C12.5 40.7295 13.4167 41.667 14.5833 41.667H35.4167C36.5625 41.667 37.5 40.7295 37.5 39.5837V18.75H31.25C28.9375 18.75 27.0833 16.875 27.0833 14.5833V8.33367ZM31.25 11.2712V14.5833H34.5622L31.25 11.2712ZM22.9167 29.1667C21.8116 29.1667 20.7518 29.6057 19.9704 30.3871C19.189 31.1685 18.75 32.2283 18.75 33.3333C18.75 34.4384 19.189 35.4982 19.9704 36.2796C20.7518 37.061 21.8116 37.5 22.9167 37.5C24.0217 37.5 25.0815 37.061 25.8629 36.2796C26.6443 35.4982 27.0833 34.4384 27.0833 33.3333C27.0833 33.1355 27.0693 32.939 27.0417 32.7454V26.25L28.1875 26.8125C29.1458 27.2083 30.25 26.8542 30.7917 25.9792C31.375 24.9792 31.0625 23.7083 30.0833 23.125L25.9167 21.0417C25.625 20.8958 25.3125 20.8333 25 20.8333C23.8542 20.8333 22.9167 21.75 22.9167 22.9167L22.9167 29.1667Z" fill="current"/>
</svg>
