<svg width="current" height="current" viewBox="0 0 50 50" fill="current" xmlns="http://www.w3.org/2000/svg">
<path fill-rule="evenodd" clip-rule="evenodd" d="M14.5833 45.8337H35.4167V45.8316C38.8542 45.8316 41.6667 43.0191 41.6667 39.5816V16.6667C41.6667 16.6661 41.6667 16.6655 41.6667 16.6649C41.6667 16.6287 41.6657 16.5925 41.6638 16.5565C41.6523 16.3348 41.6055 16.1179 41.5288 15.9148C41.4245 15.6386 41.2647 15.3879 41.0625 15.1858L30.6458 4.76909C30.25 4.37326 29.7083 4.14409 29.1667 4.16492V4.16667C29.1537 4.16667 29.1407 4.16678 29.1278 4.16701H14.5833C11.125 4.16701 8.33334 6.95867 8.33334 10.417V39.5837C8.33334 43.0212 11.125 45.8337 14.5833 45.8337ZM27.0833 8.33367H14.5833C13.4167 8.33367 12.5 9.25034 12.5 10.417V39.5837C12.5 40.7295 13.4167 41.667 14.5833 41.667H35.4167C36.5625 41.667 37.5 40.7295 37.5 39.5837V18.75H31.25C28.9375 18.75 27.0833 16.875 27.0833 14.5833V8.33367ZM31.25 11.2712V14.5833H34.5622L31.25 11.2712ZM18.75 37.5H20.8333C21.9792 37.5 22.9167 36.5625 22.9167 35.4167C22.9167 34.25 21.9792 33.3333 20.8333 33.3333V27.0833C21.9792 27.0833 22.9167 26.1458 22.9167 25C22.9167 23.8333 21.9792 22.9167 20.8333 22.9167H18.75C17.5833 22.9167 16.6667 23.8333 16.6667 25V35.4167C16.6667 36.5625 17.5833 37.5 18.75 37.5ZM29.1667 37.5H31.25C32.3958 37.5 33.3333 36.5625 33.3333 35.4167V25C33.3333 23.8333 32.3958 22.9167 31.25 22.9167H29.1667C28 22.9167 27.0833 23.8333 27.0833 25C27.0833 26.1458 28 27.0833 29.1667 27.0833V33.3333C28 33.3333 27.0833 34.25 27.0833 35.4167C27.0833 36.5625 28 37.5 29.1667 37.5Z" fill="current"/>
</svg>
