<svg width="current" height="current" viewBox="0 0 50 50" fill="current" xmlns="http://www.w3.org/2000/svg">
<path fill-rule="evenodd" clip-rule="evenodd" d="M33.3565 45.8356H35.4399L35.4169 45.794C38.8544 45.794 41.6669 42.9842 41.6669 39.5501V16.6558C41.6669 16.0938 41.4378 15.5527 41.0628 15.1781L30.6461 4.77156C30.2503 4.37611 29.7086 4.14717 29.1669 4.16798V4.18879H14.5836C11.1253 4.18879 8.33361 6.97773 8.33361 10.4327V39.5709C8.31278 41.7979 9.52111 43.8584 11.4586 44.9823H11.4607C12.4399 45.5442 13.7107 45.2112 14.294 44.233H14.3149C14.8774 43.234 14.544 41.9644 13.5649 41.4024C12.8982 41.0278 12.5024 40.3202 12.5232 39.5917V10.4535C12.5232 9.28798 13.4399 8.37221 14.6065 8.37221H20.8224C19.6716 8.38947 18.7724 9.29886 18.7724 10.4533C18.7724 11.598 19.6891 12.5346 20.8557 12.5346H22.9391C24.0849 12.5346 25.0224 11.598 25.0224 10.4533C25.0224 9.29886 24.1027 8.38947 22.9718 8.37221H28.3357L37.5232 17.5507V39.5917C37.5232 40.7364 36.5857 41.673 35.4399 41.673H33.3565C32.1899 41.673 31.2732 42.5888 31.2732 43.7543C31.2732 44.899 32.1899 45.8356 33.3565 45.8356ZM16.6891 43.7541C16.6891 46.0435 18.5432 47.9167 20.8557 47.9167H25.0224C27.3141 47.9167 29.1891 46.0435 29.1891 43.7541V39.5915C29.1891 36.1365 26.3766 33.3476 22.9391 33.3476C19.4807 33.3476 16.6891 36.1365 16.6891 39.5915V43.7541ZM20.8557 39.5915C20.8557 38.4259 21.7724 37.5102 22.9391 37.5102C24.0849 37.5102 25.0224 38.4259 25.0224 39.5915V43.7541H20.8557V39.5915ZM25.0224 16.6972H27.1057C28.2516 16.6972 29.1891 15.7606 29.1891 14.6159C29.1891 13.4503 28.2516 12.5346 27.1057 12.5346H25.0224C23.8557 12.5346 22.9391 13.4503 22.9391 14.6159C22.9391 15.7606 23.8557 16.6972 25.0224 16.6972ZM22.9391 20.8598H20.8557C19.6891 20.8598 18.7724 19.9232 18.7724 18.7785C18.7724 17.6129 19.6891 16.6972 20.8557 16.6972H22.9391C24.0849 16.6972 25.0224 17.6129 25.0224 18.7785C25.0224 19.9232 24.0849 20.8598 22.9391 20.8598ZM25.0224 25.0224H27.1057C28.2516 25.0224 29.1891 24.0858 29.1891 22.9411C29.1891 21.7755 28.2516 20.8598 27.1057 20.8598H25.0224C23.8557 20.8598 22.9391 21.7755 22.9391 22.9411C22.9391 24.0858 23.8557 25.0224 25.0224 25.0224ZM22.9391 29.185H20.8557C19.6891 29.185 18.7724 28.2484 18.7724 27.1037C18.7724 25.9381 19.6891 25.0224 20.8557 25.0224H22.9391C24.0849 25.0224 25.0224 25.9381 25.0224 27.1037C25.0224 28.2484 24.0849 29.185 22.9391 29.185ZM25.0224 33.3476H27.1057C28.2516 33.3476 29.1891 32.411 29.1891 31.2663C29.1891 30.1007 28.2516 29.185 27.1057 29.185H25.0224C23.8557 29.185 22.9391 30.1007 22.9391 31.2663C22.9391 32.411 23.8557 33.3476 25.0224 33.3476Z" fill="current"/>
</svg>
