<svg width="current" height="current" viewBox="0 0 50 50" fill="current" xmlns="http://www.w3.org/2000/svg">
<path fill-rule="evenodd" clip-rule="evenodd" d="M18.75 6.25C19.2104 6.25 19.6552 6.40243 20.0167 6.67933L20.2231 6.86019L25.8646 12.5H39.5833C42.9118 12.5 45.6326 15.1019 45.8227 18.3828L45.8333 18.75V35.4167C45.8333 38.7452 43.2314 41.466 39.9506 41.6561L39.5833 41.6667H10.4167C7.08815 41.6667 4.36736 39.0648 4.17727 35.7839L4.16666 35.4167V12.5C4.16666 9.1715 6.76857 6.45071 10.0494 6.26061L10.4167 6.25H18.75ZM17.8854 10.4167H10.4167C9.34825 10.4167 8.46768 11.2209 8.34734 12.257L8.33332 12.5V35.4167C8.33332 36.4851 9.13757 37.3656 10.1737 37.486L10.4167 37.5H39.5833C40.6517 37.5 41.5323 36.6957 41.6526 35.6596L41.6667 35.4167V18.75C41.6667 17.6816 40.8624 16.801 39.8263 16.6807L39.5833 16.6667H25C24.5395 16.6667 24.0948 16.5142 23.7333 16.2373L23.5269 16.0565L17.8854 10.4167Z" fill="current"/>
</svg>
