<svg width="current" height="current" viewBox="0 0 50 50" fill="current" xmlns="http://www.w3.org/2000/svg">
<path fill-rule="evenodd" clip-rule="evenodd" d="M4.16667 25C4.16667 13.4941 13.4941 4.16667 25 4.16667C36.5059 4.16667 45.8333 13.4941 45.8333 25C45.8333 36.5059 36.5059 45.8333 25 45.8333C13.4941 45.8333 4.16667 36.5059 4.16667 25ZM8.33334 25C8.33334 34.2048 15.7953 41.6667 25 41.6667C34.2048 41.6667 41.6667 34.2048 41.6667 25C41.6667 15.7953 34.2048 8.33334 25 8.33334C15.7953 8.33334 8.33334 15.7953 8.33334 25ZM26.4731 15.1935C27.2867 16.0071 27.2867 17.3262 26.4731 18.1398C25.6595 18.9534 24.3404 18.9534 23.5269 18.1398C22.7133 17.3262 22.7133 16.0071 23.5269 15.1935C24.3405 14.3799 25.6595 14.3799 26.4731 15.1935ZM22.9167 22.9167C22.9167 21.7661 23.8494 20.8333 25 20.8333C26.1506 20.8333 27.0833 21.7661 27.0833 22.9167V33.3333C27.0833 34.4839 26.1506 35.4167 25 35.4167C23.8494 35.4167 22.9167 34.4839 22.9167 33.3333V22.9167Z" fill="current"/>
</svg>
