<svg width="37" height="40" viewBox="0 0 37 40" fill="none" xmlns="http://www.w3.org/2000/svg">
<path fill-rule="evenodd" clip-rule="evenodd" d="M4.625 11.8799C4.625 12.7332 5.28072 13.4251 6.08958 13.4251H30.9104C31.7193 13.4251 32.375 12.7332 32.375 11.8799V11.7172C32.375 10.8638 31.7193 10.172 30.9104 10.172H6.08958C5.28072 10.172 4.625 10.8638 4.625 11.7172V11.8799ZM6.08958 21.5577C5.28072 21.5577 4.625 20.8659 4.625 20.0125V19.8498C4.625 18.9965 5.28072 18.3046 6.08958 18.3046H30.9104C31.7193 18.3046 32.375 18.9965 32.375 19.8498V20.0125C32.375 20.8659 31.7193 21.5577 30.9104 21.5577H6.08958ZM6.08958 29.6903C5.28072 29.6903 4.625 28.9985 4.625 28.1451V27.9825C4.625 27.1291 5.28072 26.4373 6.08958 26.4373H30.9104C31.7193 26.4373 32.375 27.1291 32.375 27.9825V28.1451C32.375 28.9985 31.7193 29.6903 30.9104 29.6903H6.08958Z" fill="white"/>
</svg>
