<svg width="50" height="50" viewBox="0 0 50 50" fill="none" xmlns="http://www.w3.org/2000/svg">
<path fill-rule="evenodd" clip-rule="evenodd" d="M41.6667 27.4583H33.2083L38 22.3125C38.8078 21.4999 38.8078 20.1876 38 19.375L29.2708 11.3333C28.8767 10.9514 28.3392 10.7546 27.7917 10.7917C27.2391 10.805 26.7145 11.0373 26.3333 11.4375L22.5417 15.6042V8.33333C22.5417 7.18274 21.6089 6.25 20.4583 6.25H8.33333C7.18274 6.25 6.25 7.18274 6.25 8.33333V35.6042H6.25C6.25 40.103 9.89702 43.75 14.3958 43.75H41.6667C42.8173 43.75 43.75 42.8173 43.75 41.6667V29.5417C43.75 28.3911 42.8173 27.4583 41.6667 27.4583ZM27.9583 15.8125L33.5208 21L22.5417 32.7917V21.625L27.9583 15.8125ZM18.375 20.8333V27.0833H10.4167V20.8333H18.375ZM18.375 10.4167V16.6667H10.4167V10.4167H18.375ZM10.4167 35.6042V31.25H18.375V35.6042C18.375 37.8018 16.5935 39.5833 14.3958 39.5833C12.1982 39.5833 10.4167 37.8018 10.4167 35.6042ZM39.5869 39.5834H21.8994L29.3161 31.6251H39.5869V39.5834Z" fill="white"/>
</svg>
