<svg width="19" height="19" viewBox="0 0 19 19" fill="none" xmlns="http://www.w3.org/2000/svg">
<path fill-rule="evenodd" clip-rule="evenodd" d="M17.71 16.29L14.31 12.9C15.407 11.5024 16.0022 9.77666 16 8C16 3.58172 12.4183 0 8 0C3.58172 0 0 3.58172 0 8C0 12.4183 3.58172 16 8 16C9.77666 16.0022 11.5025 15.407 12.9 14.31L16.29 17.71C16.6789 18.1021 17.3121 18.1047 17.7042 17.7158C17.7061 17.7139 17.7081 17.7119 17.71 17.71V17.71C18.1021 17.3211 18.1047 16.6879 17.7158 16.2958C17.7139 16.2939 17.7119 16.2919 17.71 16.29L17.71 16.29ZM2 8V8C2 4.68629 4.68629 2 8 2C11.3137 2 14 4.68629 14 8C14 11.3137 11.3137 14 8 14C4.68629 14 2 11.3137 2 8L2 8Z" fill="#424242"/>
</svg>
