<svg width="50" height="50" viewBox="0 0 50 50" fill="none" xmlns="http://www.w3.org/2000/svg">
<path fill-rule="evenodd" clip-rule="evenodd" d="M43.75 14.8958V14.8958C42.4561 14.3132 40.9393 14.5592 39.8958 15.5208L35.4167 19.6875V16.6667C35.4167 13.2149 32.6184 10.4167 29.1667 10.4167H10.4167L10.4167 10.4167C6.9649 10.4167 4.16667 13.2149 4.16667 16.6667V33.3333H4.16667C4.16667 36.7851 6.9649 39.5833 10.4167 39.5833H29.1667C32.6184 39.5833 35.4167 36.7851 35.4167 33.3333V30.3125L39.9167 34.4792V34.4792C40.5791 35.0788 41.4398 35.4127 42.3333 35.4167C42.8292 35.4155 43.3192 35.309 43.7708 35.1042C45.0277 34.5957 45.8514 33.3767 45.8542 32.0208V17.9792V17.9792C45.848 16.6182 45.0151 15.3977 43.75 14.8958L43.75 14.8958ZM31.25 33.3333C31.25 34.4839 30.3173 35.4167 29.1667 35.4167H10.4167C9.26608 35.4167 8.33334 34.4839 8.33334 33.3333V16.6667V16.6667C8.33334 15.5161 9.26608 14.5833 10.4167 14.5833H29.1667C30.3173 14.5833 31.25 15.5161 31.25 16.6667V33.3333ZM41.6696 30.4134L35.8154 24.9967L41.6696 19.5801V30.4134Z" fill="white"/>
</svg>
